P2
#Criado_por_Vinicius_Bueno_Bastos
64 64
 255
     221     222     219     221     218     214     212     214     209     207     209     200     206     204     188     192     203     209     217     219     221     217     220     224     225     219     212     213     217     218     218     216     218     218     219     223     227     233     230     225     224     225     226     234     228     215     207     210     217     211     197     199     210     207     214     218     220     215     211     208     211     210     213     215
     219     221     218     219     216     210     209     209     205     199     196     204     208     207     198     199     201     198     213     217     222     218     220     223     225     222     216     214     215     219     218     214     217     217     220     223     227     231     224     226     223     225     226     231     223     214     206     214     217     212     202     217     198     200     200     199     212     210     199     202     205     210     212     215
     215     218     219     218     214     212     206     205     206     202     203     205     215     211     211     208     200     199     209     216     219     219     216     223     227     227     222     218     216     218     219     215     214     218     219     222     224     223     225     220     221     225     227     231     226     210     207     212     216     212     211     214     205     204     212     211     210     200     207     210     206     210     215     216
     208     212     214     218     216     211     205     200     200     200     194     203     215     205     209     210     204     203     200     216     219     219     215     223     228     229     225     220     219     219     218     213     213     217     218     220     219     221     223     220     224     226     227     230     222     211     207     213     217     211     211     208     212     209     209     204     215     216     213     211     204     212     216     214
     208     210     212     212     214     213     207     199     194     195     204     209     209     199     202     202     197     197     203     209     216     220     221     221     229     229     227     223     219     220     219     211     211     218     216     217     214     218     220     223     227     226     228     226     218     211     207     215     210     199     195     204     211     209     207     213     203     212     216     208     207     212     212     210
     206     210     211     210     209     212     207     198     192     199     209     206     215     208     220     209     196     194     205     204     216     220     223     225     228     226     225     221     219     219     219     214     211     217     215     215     215     212     225     226     224     225     226     218     215     211     208     212     199     193     210     202     194     177     184     181     195     198     200     204     204     210     210     212
     205     210     208     210     208     208     204     198     203     210     214     213     203     187     206     211     202     211     202     208     210     222     224     222     227     228     223     219     219     217     219     217     212     213     213     211     210     217     228     226     223     223     224     220     218     212     209     206     180     196     202     169     155     155     114      84     128     179     192     199     210     212     212     211
     203     207     208     205     206     203     201     201     210     211     213     205     193     197     201     195     171     190     198     196     205     220     224     221     226     228     221     219     220     216     217     218     215     210     209     212     208     215     228     225     222     224     224     221     215     208     205     201     189     210     187     124      77      96     122      99      47     120     192     206     209     206     208     211
     202     206     209     205     205     204     200     201     204     212     201     180     161     166     177     177     164     171     192     199     206     214     222     221     223     225     220     214     218     217     216     217     214     212     213     213     209     217     224     222     220     223     221     222     211     209     205     204     204     198     147     125     154     152     158     147      28      79     199     203     207     204     210     216
     210     208     208     208     207     206     204     199     200     193     149      97     114     119     119     119     158     170     184     204     197     207     221     217     224     224     218     214     215     213     215     218     215     217     215     215     212     217     221     215     217     220     215     219     208     210     201     210     194     200     152     100     166     166     167     170      56      66     191     200     205     208     215     216
     211     215     211     209     208     209     206     204     201     196     130      67     132     144     140     133      95     100     145     156     201     200     213     223     220     226     221     217     216     211     212     217     213     217     215     216     212     215     219     216     221     221     212     217     210     200     217     201     215     190     146      94     168     169     171     170      50      56     195     198     203     209     214     218
     207     212     214     214     213     212     209     206     205     200     135      64     156     152     147     148      45      66      63     119     174     211     200     211     220     225     224     219     217     213     211     215     209     214     217     211     208     216     214     220     222     221     210     217     206     205     201     195     201     170      62      59     161     169     173     171      47      49     202     211     210     215     219     221
     205     209     212     218     220     218     219     213     209     206     132      58     164     160     155     153      42      62      49      46     126     147     219     207     215     226     223     219     217     214     212     211     209     212     213     211     214     212     216     221     225     221     208     218     194     199     206     210     154      93      20      26     168     169     172     172      43      66     198     205     212     216     217     221
     208     211     212     216     220     220     217     214     214     210     130      51     167     166     162     159      56      12      17      74     143     134     207     233     216     221     223     217     216     215     214     211     211     210     210     212     215     207     214     222     225     214     210     200     208     205     178     164     101      33      15      45     168     169     172     162      36      85     203     203     206     212     223     216
     203     208     213     214     216     217     218     215     213     207     138      41     159     171     168     166      97      20      24      41     154     146     134     179     234     215     222     219     216     214     216     210     209     210     208     210     212     201     219     218     221     209     215     211     209     199     162     164     105       1       2     116     168     170     175     139      23     111     207     207     208     217     218     218
     208     209     210     213     217     215     219     220     218     215     161      39     136     175     169     166     158      27       0      71     159     155     142     121     204     228     207     218     215     209     212     208     206     207     207     211     214     200     211     216     215     207     227     217     163     158     159     164     166      90     109     165     166     169     170     103      26     146     194     207     215     219     218     214
     205     207     206     215     221     223     221     222     220     220     192      44      97     184     170     166     166     154     114     160     164     165     160     119     162     228     215     207     212     205     202     206     205     203     206     213     211     204     210     210     216     219     225     181      68     145     168     165     166     166     166     165     168     172     159      57      43     178     207     205     209     212     216     208
     208     214     214     219     222     225     220     219     221     219     209      66      61     180     172     167     165     166     164     165     168     172     170      98     133     218     223     203     211     198     197     201     203     205     207     211     202     199     207     208     213     229     208     154      48     121     164     169     168     166     167     168     170     165     137      30      94     194     206     209     212     212     208     208
     207     214     215     218     217     225     227     223     224     223     220     121      30     154     178     169     168     165     168     169     175     178     174      69     106     211     226     208     207     212     203     211     205     206     205     207     189     189     213     204     212     218     200     137      40      74     161     168     171     172     172     173     167     156      83      41     138     204     203     205     210     210     210     207
     206     209     216     222     224     225     225     228     225     224     219     174      39      92     178     178     173     173     174     175     178     180     161      47      78     204     229     224     189     207     210     208     198     209     211     197     185     200     201     200     218     207     190     124      69      44     120     166     169     170     172     168     158     123      29      66     182     206     199     204     210     214     206     206
     209     213     218     218     223     229     230     230     227     226     223     206      99      43     151     179     181     183     181     181     178     178     116      47      95     196     226     226     207     193     204     215     205     181     197     191     195     204     208     212     219     204     192     161     119      48      56     139     161     164     162     154     127      48      42     132     204     201     200     201     200     209     209     211
     211     214     220     225     226     228     228     230     231     226     221     213     151      52      68     168     179     178     181     178     181     160      58      68     150     190     217     224     214     203     176     203     203     196     200     179     188     181     207     212     218     209     192     166     165     131      49      53     106     136     127      97      44      44     107     185     195     215     208     203     204     207     209     211
     206     216     227     232     231     229     231     228     226     225     218     218     204     102      40      75     154     169     178     181     155      65      54     138     170     179     213     221     218     199     194     202     208     212     203     192     197     210     207     212     215     204     188     166     146     188     114      59      31      35      31      35      62     118     174     203     192     204     210     204     217     212     206     204
     216     222     224     224     226     227     231     233     227     222     222     224     217     176      94      50      55     106     125      97      52      46     112     187     163     187     211     218     216     211     207     215     212     212     188     191     192     205     217     216     203     197     193     179     132     186     188     124      65      55      44      68     114     171     193     215     201     200     200     205     203     204     202     200
     220     219     223     221     223     226     223     224     227     228     225     223     222     213     170      96      64      52      51      53      58     116     188     184     172     200     212     209     211     209     215     211     209     206     194     200     210     215     224     213     209     197     192     180     154     172     190     192     157     121     113     132     179     192     206     212     212     200     204     206     203     201     199     200
     214     216     219     225     230     228     224     219     221     225     222     221     221     221     213     180     120      92      78     102     151     196     198     186     179     205     213     215     211     210     215     206     203     200     208     209     213     215     219     215     202     191     186     176     172     163     186     198     195     187     196     203     200     200     197     210     209     209     199     205     203     200     200     196
     209     213     218     223     227     226     225     223     220     217     220     219     224     218     222     214     207     192     188     205     207     205     197     189     199     207     210     211     213     210     209     206     202     199     202     206     212     210     218     214     193     195     188     182     179     175     171     189     195     198     204     204     196     202     188     207     207     200     203     198     198     195     193     191
     207     212     216     217     217     216     219     221     222     218     215     219     218     210     224     218     224     215     215     217     211     207     198     200     208     212     210     205     206     205     207     201     206     195     198     203     210     209     207     212     181     187     192     190     184     185     170     176     192     196     195     206     193     190     202     198     206     197     195     195     193     192     193     190
     202     213     214     212     216     213     217     223     222     216     217     225     221     213     226     218     221     209     215     205     207     200     201     205     213     213     209     205     191     200     206     196     207     197     199     201     208     208     203     212     189     185     188     184     182     183     184     178     179     196     186     207     189     180     204     197     199     203     196     192     190     191     190     187
     209     212     212     219     219     220     220     217     215     216     218     212     219     228     218     224     217     205     222     205     208     206     206     210     216     212     213     203     192     202     203     197     202     197     200     203     208     204     204     212     187     190     193     198     193     186     183     184     178     184     191     193     192     192     201     193     192     188     190     194     194     193     192     186
     206     208     214     218     217     217     218     216     218     212     208     211     219     224     216     219     221     198     205     215     208     213     214     217     219     213     212     198     196     200     198     194     198     199     197     202     209     199     196     215     189     190     188     202     195     196     194     188     182     175     182     182     172     181     180     186     183     184     188     192     192     192     190     186
     205     212     213     212     212     215     213     215     211     206     201     209     212     206     214     213     201     190     205     212     213     218     220     221     218     208     203     194     197     201     194     192     192     204     199     204     209     199     186     213     201     191     189     191     196     195     195     190     195     191     189     189     191     190     191     192     191     191     187     189     188     187     185     184
     205     203     200     203     208     208     209     213     211     210     205     206     206     208     217     212     212     213     214     221     218     220     219     219     213     208     195     194     204     201     193     192     188     206     201     205     208     199     179     212     206     198     196     179     197     192     201     182     185     193     187     187     188     193     190     194     194     190     189     188     192     192     187     182
     204     198     194     200     206     210     216     213     211     208     208     212     214     216     215     215     217     219     221     225     222     219     224     216     209     209     195     197     201     193     196     191     187     206     202     206     211     199     178     205     204     204     192     187     178     199     191     202     184     180     200     195     196     198     188     188     190     188     187     184     186     187     185     178
     208     203     204     207     206     210     214     215     209     210     212     222     219     210     215     220     224     227     228     230     216     222     217     218     201     201     186     208     198     185     194     194     183     205     199     206     204     200     170     193     197     211     189     198     193     194     211     206     198     187     191     201     195     201     203     191     191     188     184     181     179     179     181     176
     210     208     204     200     201     205     212     214     214     216     222     222     215     223     231     232     232     231     230     227     214     214     215     216     198     201     194     211     196     173     194     196     187     201     197     205     198     210     155     186     182     208     194     195     199     184     189     185     194     200     196     195     192     193     190     187     185     186     185     183     179     177     172     175
     213     211     205     204     204     208     207     207     207     209     213     218     223     226     231     227     228     232     233     225     211     206     217     208     203     202     197     211     191     160     193     191     191     197     194     204     194     210     146     186     178     195     199     201     188     186     180     181     178     193     201     199     198     183     176     176     180     186     187     186     187     180     175     170
     215     217     211     205     203     201     201     204     205     208     214     216     223     230     232     236     231     233     233     225     217     218     208     204     211     198     195     214     189     152     197     189     194     193     193     194     198     206     145     192     161     181     206     197     190     182     177     185     185     185     200     202     198     201     192     179     176     182     184     184     187     185     178     180
     216     216     210     209     203     199     198     201     204     206     208     213     227     230     231     228     228     229     224     222     211     213     202     210     208     190     197     211     185     156     184     186     199     188     188     189     198     191     166     203     147     180     200     193     198     175     182     186     187     187     190     199     198     199     199     201     184     174     180     175     175     181     182     185
     215     216     215     212     209     204     199     200     196     193     201     217     216     214     220     222     226     220     222     220     217     212     208     209     204     198     199     199     186     173     168     198     182     188     178     181     189     177     192     198     146     191     199     183     197     185     179     187     193     186     190     194     187     183     186     196     192     180     176     182     182     187     191     190
     216     215     217     214     214     208     205     201     198     197     205     195     195     207     204     221     222     215     219     221     224     206     216     205     199     203     198     192     182     188     161     185     181     178     178     185     187     166     200     193     145     194     182     184     201     195     166     190     189     199     186     191     192     187     169     181     191     181     181     184     187     191     197     192
     212     217     215     217     214     212     209     205     203     196     188     189     197     187     212     234     219     215     223     228     209     221     205     210     199     203     195     177     181     203     166     178     188     184     162     173     178     151     203     181     158     201     168     186     201     197     166     179     192     192     194     187     191     191     188     172     185     186     183     186     190     194     196     196
     209     214     213     217     218     217     212     210     205     198     195     199     194     200     230     223     209     223     226     218     209     216     201     201     207     202     193     171     181     207     166     146     174     161     142     147     154     141     209     174     169     199     156     185     198     192     186     164     197     187     197     186     190     189     191     185     183     187     188     189     193     197     198     197
     207     207     213     218     219     219     218     215     210     208     204     208     199     218     221     203     222     219     217     205     221     205     213     196     204     196     195     162     189     202     186     134     160     150     112     124     148     158     194     166     183     189     157     189     192     186     190     157     191     196     189     191     190     186     187     193     186     187     193     191     200     199     199     198
     206     205     214     217     222     221     221     219     216     213     212     207     208     220     198     214     216     211     217     210     218     202     217     194     195     199     192     160     197     186     181     134     138     138     119     122     112     164     188     159     194     194     162     185     180     186     185     172     175     197     183     193     184     194     184     193     189     190     193     198     201     204     198     195
     204     205     213     218     221     222     223     223     219     216     214     209     211     206     201     216     206     214     204     222     204     199     212     194     204     200     190     160     204     178     193     129     107     128     149     106     108     167     173     157     191     185     172     189     178     186     183     184     161     201     183     194     184     185     187     184     192     193     195     200     201     200     197     191
     205     205     211     216     218     222     224     222     219     217     214     211     215     202     214     207     206     221     204     216     202     202     203     199     204     200     201     148     203     176     193     139      99     135     173     127      97     146     153     164     192     178     173     191     176     186     183     189     153     199     190     193     186     179     188     182     190     196     198     198     203     199     194     186
     203     203     210     216     218     222     222     221     220     220     215     214     210     207     214     203     212     215     214     211     202     208     192     194     204     195     195     160     195     190     178     134     102     134     152     123      88     141     124     169     194     173     174     190     176     187     183     190     158     190     197     194     184     180     182     185     188     199     199     200     203     197     190     185
     201     203     213     214     220     221     221     221     222     220     219     215     209     210     212     202     217     208     221     212     201     204     182     200     198     192     202     173     185     193     160     157     109     126     146     123     100     120     101     173     192     180     183     189     172     187     185     185     169     181     198     189     183     188     181     188     191     197     201     200     201     198     186     183
     200     206     210     214     220     220     221     221     220     220     219     216     212     213     209     203     220     207     218     206     205     208     170     200     192     182     202     183     185     183     156     161     129     124     130     121     136     130     116     170     185     181     179     187     177     185     179     182     173     177     194     189     188     187     186     189     194     199     201     202     198     197     184     183
     202     203     207     212     216     218     220     220     221     222     219     217     211     214     203     205     217     210     216     202     198     215     170     198     192     182     196     190     177     171     154     163     151     121     126     127     151     126     119     158     178     178     178     185     184     183     184     184     172     171     191     185     189     188     191     193     196     199     202     203     196     192     182     183
     199     202     203     208     212     214     220     218     222     223     220     215     211     211     205     207     214     213     213     198     196     220     173     193     188     181     186     197     164     168     158     143     141     119     124     124     141     126     119     153     173     180     175     180     181     182     179     184     172     175     188     188     190     192     195     197     199     200     200     202     196     189     180     183
     201     201     202     207     208     217     217     221     222     223     218     218     213     210     207     210     211     209     213     190     199     217     176     194     194     175     175     193     161     158     149     141     136     118     131     131     129     114     114     158     169     179     175     178     181     182     175     182     173     179     189     188     193     195     197     196     199     199     198     198     196     186     180     181
     200     197     200     200     206     210     213     222     224     220     220     220     214     208     209     210     205     209     210     187     202     213     179     191     198     169     176     188     167     150     141     137     124     110     135     136     117      99     123     177     168     176     178     175     181     182     176     179     174     184     190     192     193     195     197     197     198     197     195     194     192     185     181     182
     198     198     200     200     204     204     217     222     221     219     220     218     213     210     209     207     202     209     202     191     203     210     185     187     200     171     175     182     175     146     138     137     121     105     119     108     112      90     144     177     170     173     174     175     179     182     177     176     174     185     194     193     196     194     197     198     199     198     193     192     187     185     182     183
     198     200     198     201     200     206     215     217     215     216     221     218     214     214     208     205     200     206     199     195     199     209     188     182     198     173     179     173     176     157     139     125     114      93     112      94     105     102     174     176     171     172     174     173     179     181     182     176     173     184     196     194     201     196     195     198     198     196     192     189     184     183     182     184
     198     200     200     199     197     207     210     210     212     216     220     218     216     216     209     205     198     203     200     197     200     205     189     178     191     175     174     168     174     168     145     120     109      88     108      83      96     111     184     177     170     172     173     174     180     182     185     180     171     180     195     196     200     201     197     195     198     195     191     189     183     183     183     185
     199     202     200     196     197     201     204     209     210     217     217     217     217     217     208     204     196     202     200     195     199     200     190     177     188     181     170     168     171     170     159     121     108      89     107      82      81     124     183     176     170     171     173     177     180     183     186     189     174     179     190     197     197     201     198     195     194     199     190     187     184     184     183     186
     202     203     200     195     194     197     203     206     210     215     217     216     219     218     207     203     197     196     200     195     197     195     191     179     183     179     168     170     171     171     171     130     107      87     107      75      77     138     184     178     171     173     177     182     183     188     189     194     183     177     188     195     196     198     198     197     194     193     195     189     185     181     183     186
     205     203     198     194     191     194     200     204     209     213     213     218     219     214     208     202     198     197     196     198     196     192     191     183     180     181     169     168     170     171     177     139     111      83     102      70      80     156     183     178     174     174     183     187     188     193     193     199     192     175     186     191     195     198     198     194     195     193     194     189     186     182     184     185
     206     204     199     195     192     195     200     208     208     208     212     217     219     209     210     200     197     197     198     200     194     191     189     183     182     179     172     171     168     172     177     157     115      88     110      70      82     173     184     179     177     177     187     192     195     194     195     198     197     178     183     191     192     198     199     198     197     194     192     189     184     184     187     186
     208     206     200     193     193     195     200     205     205     205     209     216     214     205     208     199     194     201     200     198     195     192     188     184     185     178     172     173     169     172     178     174     107      88      87      56      89     188     185     181     180     181     187     196     196     193     196     196     196     187     180     190     188     193     197     198     193     192     189     188     183     182     185     186
     210     209     204     195     192     195     200     202     204     203     207     212     208     202     200     198     196     203     201     199     195     194     191     186     186     179     172     174     171     171     178     184     118      86      78      54     111     192     186     184     184     183     185     196     198     193     192     196     195     191     177     188     189     188     195     196     194     188     185     183     183     184     186     185
     211     210     208     195     189     194     200     199     200     199     204     205     200     200     196     198     196     201     201     198     196     193     192     189     187     179     174     174     170     170     178     187     137      84      75      58     139     194     189     189     188     186     187     194     197     196     191     194     194     196     179     180     192     184     188     195     195     193     186     180     182     185     186     184
